# xmcd
#
# Track frame offsets:
# 150
# 15975
# 37511
# 62078
# 87977
# 101909
# 115293
# 131753
# 153373
# 168708
# 182076
# 201796
# 213332
# 233643
# 263114
# 284370
#
# Disc length: 4090 seconds
#
# Revision: 0
# Processed by: cddbd v1.5.2PL0 Copyright (c) Steve Scherf et al.
# Submitted via: Axialis_AX_CDPlayer 2.6
#
DISCID=d90ff810
DTITLE=Alison Krauss - A Hundred Miles Or More
DYEAR=1900
DGENRE=
TTITLE0=You're Just A Country Boy
TTITLE1=Simple Love
TTITLE2=Jacob's Dream
TTITLE3=Away Down The River
TTITLE4=Sawing On The Strings
TTITLE5=Down To The River To Pray
TTITLE6=Baby Mine
TTITLE7=Molly Ban (With The Chieftans)
TTITLE8=How's The World Treating You (With James Taylor)
TTITLE9=The Scarlet Tide
TTITLE10=Whiskey Lullaby (With Brad Paisley)
TTITLE11=You Will Be My Ain True Love (With Sting)
TTITLE12=I Give You This Heart
TTITLE13=Get Me Through December (Natalie Macmaster)
TTITLE14=Missing You (With John Waite)
TTITLE15=Lay Down Beside Me (With John Waite)
EXTD=www.alisonkrauss.com
EXTT0=
EXTT1=
EXTT2=
EXTT3=
EXTT4=
EXTT5=
EXTT6=
EXTT7=
EXTT8=
EXTT9=
EXTT10=
EXTT11=
EXTT12=
EXTT13=
EXTT14=
EXTT15=
PLAYORDER=
